<svg xmlns="http://www.w3.org/2000/svg" xmlns:xlink="http://www.w3.org/1999/xlink" width="272" height="256.00006" viewBox="0 0 71.966667 67.733351"><defs><linearGradient id="b"><stop offset="0" style="stop-color:#104887;stop-opacity:1"/><stop offset="1" style="stop-color:#0767b9;stop-opacity:1"/></linearGradient><linearGradient id="c"><stop offset="0" style="stop-color:#000;stop-opacity:0"/><stop offset="0.5" style="stop-color:#000;stop-opacity:.05"/><stop offset="1" style="stop-color:#000;stop-opacity:.25"/></linearGradient><linearGradient id="a"><stop offset="0" style="stop-color:#3cccf4;stop-opacity:1"/><stop offset="1" style="stop-color:#2894e1;stop-opacity:1"/></linearGradient><linearGradient xlink:href="#a" id="f" x1="608" x2="608" y1="0" y2="256" gradientTransform="matrix(.26458 0 0 .26458 -71.402 118.705)" gradientUnits="userSpaceOnUse"/><linearGradient xlink:href="#b" id="d" x1="336" x2="336" y1="0" y2="256" gradientTransform="matrix(.26458 0 0 .26458 -71.402 118.705)" gradientUnits="userSpaceOnUse"/><linearGradient xlink:href="#c" id="e" x1="492.23633" x2="516.85742" y1="247.17581" y2="238.82422" gradientTransform="translate(-336)" gradientUnits="userSpaceOnUse"/></defs><path d="M41.575 118.705a3.44 3.44 0 0 0-3.257 2.334L17.68 181.894a3.44 3.44 0 0 0 3.257 4.544h16.669a3.44 3.44 0 0 0 3.257-2.335l20.638-60.854a3.44 3.44 0 0 0-3.258-4.544z" style="fill:url(#d);fill-opacity:1;stroke-width:.573265;stroke-linecap:round;stroke-linejoin:round" transform="translate(-17.498 -118.705)"/><path d="m58.882 162.625-20.218.265a1.33 1.33 0 0 0-1.323 1.323c0 .382.165.723.424.964L59.43 185.38a3.865 3.865 0 0 0 2.662 1.058H86.29z" style="fill:#0078d3;fill-opacity:1;stroke-width:1.32293;stroke-linecap:round;stroke-linejoin:round" transform="translate(-17.498 -118.705)"/><path d="M91 0a13 13 0 0 0-12.31 8.824l-78 230 103.238-37.699L158.484 252c2.145 2 5.516 4 10.063 4H260l-103.588-90-40.754.533 50.653-149.357L154 0Z" style="fill:url(#e);fill-opacity:1;stroke-width:2.16667;stroke-linecap:round;stroke-linejoin:round" transform="scale(.26458)"/><path d="M41.455 118.705a3.44 3.44 0 0 1 3.257 2.334l20.637 60.855a3.44 3.44 0 0 1-3.257 4.544h23.933a3.44 3.44 0 0 0 3.257-4.544l-20.638-60.855a3.44 3.44 0 0 0-3.257-2.334z" style="fill:url(#f);fill-opacity:1;stroke-width:.573265;stroke-linecap:round;stroke-linejoin:round" transform="translate(-17.498 -118.705)"/></svg>